<?xml version="1.0" encoding="utf-8"?>
<svg id="master-artboard" height="150px" version="1.1" y="0px" viewBox="0 0 150 150" xmlns="http://www.w3.org/2000/svg" x="0px" width="150px" enable-background="new 0 0 150 150">
<g transform="matrix(0.8935909867286682, 0, 0, 0.8935909867286682, -280.9349888671162, -193.48889036827202)">
	<g>
		<path fill="#E5ECE1" d="M334.189,313.102c0.248-23.777,13.304-45.086,34.036-56.589c21.089-11.702,47.545-10.111,67.712,2.667&#10;&#9;&#9;&#9;c20.043,12.7,31.027,35.951,29.312,59.407c-1.716,23.476-17.436,43.793-38.521,53.427c-20.237,9.247-44.394,6.798-62.997-4.99&#10;&#9;&#9;&#9;C345.368,355.388,334.415,334.683,334.189,313.102c-0.02-1.934-3.02-1.936-3,0c0.218,20.894,9.95,40.938,26.771,53.518&#10;&#9;&#9;&#9;c17.546,13.122,40.113,17.175,61.197,11.319c19.734-5.479,36.754-20.611,44.371-39.632c8.062-20.13,5.949-42.786-5.559-61.138&#10;&#9;&#9;&#9;c-16.163-25.777-48.543-36.935-77.46-28.905c-28.874,8.019-49.011,35.107-49.321,64.837&#10;&#9;&#9;&#9;C331.169,315.037,334.169,315.035,334.189,313.102L334.189,313.102z"/>
	</g>
</g>
<g transform="matrix(0.8935909867286682, 0, 0, 0.8935909867286682, -280.9349888671162, -193.48889036827202)">
	<g>
		<path fill="#E5ECE1" d="M458.261,313.102c-0.287,24.4-15.75,45.724-38.614,54.067c-22.881,8.349-48.847,0.896-64.678-17.258&#10;&#9;&#9;&#9;c-16.102-18.463-17.579-45.825-5.132-66.551c12.663-21.086,38.236-31.144,62.012-26.497&#10;&#9;&#9;&#9;C438.541,262.079,457.943,286.14,458.261,313.102c0.022,1.934,3.022,1.936,3,0c-0.251-21.373-11.465-40.637-29.665-51.754&#10;&#9;&#9;&#9;c-18.507-11.304-42.224-11.254-61.229-1.299c-18.724,9.809-30.663,29.362-31.894,50.278c-1.253,21.271,9.937,41.408,27.373,53.134&#10;&#9;&#9;&#9;c18.764,12.618,43.659,13.064,63.456,2.694c19.591-10.263,31.701-31.133,31.959-53.053&#10;&#9;&#9;&#9;C461.283,311.166,458.283,311.168,458.261,313.102z"/>
	</g>
</g>
<g transform="matrix(0.8935909867286682, 0, 0, 0.8935909867286682, -280.9349888671162, -193.48889036827202)">
	<g>
		<path fill="#E5ECE1" d="M405.87,239.081c-0.394,7.3-10.935,7.3-11.328,0C394.148,231.775,405.479,231.813,405.87,239.081&#10;&#9;&#9;&#9;c0.104,1.924,3.104,1.934,3,0c-0.264-4.902-3.763-8.401-8.664-8.665c-4.891-0.263-8.421,4.161-8.664,8.665&#10;&#9;&#9;&#9;c-0.263,4.891,4.16,8.42,8.664,8.663c4.891,0.263,8.422-4.159,8.664-8.663C408.975,237.147,405.974,237.157,405.87,239.081z"/>
	</g>
</g>
<g transform="matrix(0.8935909867286682, 0, 0, 0.8935909867286682, -280.9349888671162, -193.48889036827202)">
	<g>
		<path fill="#E5ECE1" d="M407.391,310.651c-3.044,8.043-6.087,16.087-9.131,24.131c0.964,0,1.928,0,2.893,0&#10;&#9;&#9;&#9;c-3.043-8.044-6.087-16.088-9.131-24.132c-0.678-1.792-3.579-1.016-2.893,0.797c3.043,8.044,6.087,16.088,9.131,24.132&#10;&#9;&#9;&#9;c0.539,1.424,2.354,1.424,2.893,0c3.044-8.043,6.087-16.087,9.131-24.131C410.97,309.636,408.068,308.859,407.391,310.651&#10;&#9;&#9;&#9;L407.391,310.651z"/>
	</g>
</g>
<g transform="matrix(0.8935909867286682, 0, 0, 0.8935909867286682, -280.9349888671162, -193.48889036827202)">
	<path d="M 390.57501220703125 310.71099853515625 L 399.70599365234375 286.5799865722656 L 408.8370056152344 310.71099853515625 Z" fill="#E5ECE1"/>
	<g>
		<path fill="#E5ECE1" d="M392.021,311.109c3.044-8.043,6.087-16.087,9.131-24.13c-0.964,0-1.928,0-2.893,0&#10;&#9;&#9;&#9;c3.044,8.043,6.087,16.087,9.131,24.13c0.482-0.633,0.964-1.266,1.446-1.898c-6.087,0-12.174,0-18.262,0c-1.935,0-1.935,3,0,3&#10;&#9;&#9;&#9;c6.087,0,12.175,0,18.262,0c0.906,0,1.797-0.972,1.446-1.898c-3.044-8.044-6.087-16.087-9.131-24.131&#10;&#9;&#9;&#9;c-0.539-1.423-2.354-1.423-2.893,0c-3.044,8.044-6.087,16.087-9.131,24.131C388.443,312.125,391.344,312.901,392.021,311.109z"/>
	</g>
</g>


<g transform="matrix(0.8935909867286682, 0, 0, 0.8935909867286682, -280.9349888671162, -193.48889036827202)">
	<g>
		<path fill="#E5ECE1" d="M391.373,237.58c-2.622,0-5.244,0-7.866,0c-2.602,0-5.228-0.077-7.602-1.259&#10;&#9;&#9;&#9;c-5.508-2.745-0.145-10.698,3.053-12.657c2.414-1.479,5.878-1.084,8.614-1.084c3.878,0,7.756,0,11.634,0&#10;&#9;&#9;&#9;c5.611,0,11.222,0,16.833,0c4.542,0,7.895,3.043,9.218,7.19c1.876,5.877-3.266,7.576-7.838,7.791&#10;&#9;&#9;&#9;c-2.895,0.137-5.817,0.019-8.714,0.019c-1.935,0-1.935,3,0,3c4.638,0,9.477,0.376,14.018-0.705&#10;&#9;&#9;&#9;c6.487-1.544,6.624-8.708,4.323-13.724c-4.319-9.417-19.705-6.572-27.84-6.572c-9.045,0-21.303-2.468-26.84,6.572&#10;&#9;&#9;&#9;c-3.212,5.244-1.43,11.72,4.323,13.724c4.361,1.519,10.125,0.705,14.684,0.705C393.308,240.58,393.308,237.58,391.373,237.58&#10;&#9;&#9;&#9;L391.373,237.58z"/>
	</g>
</g>
<path d="M 398.205994 257.997009 H 401.205994 V 268.330009 H 398.205994 V 257.997009 Z" fill="#E5ECE1" transform="matrix(0.8935909867286682, 0, 0, 0.8935909867286682, -280.9349888671162, -193.48889036827202)"/>
<path d="M 398.705994 357.664001 H 401.705994 V 367.996001 H 398.705994 V 357.664001 Z" fill="#E5ECE1" transform="matrix(0.8935909867286682, 0, 0, 0.8935909867286682, -280.9349888671162, -193.48889036827202)"/>
<path d="M 344.705994 311.85199 H 355.038994 V 314.85199 H 344.705994 V 311.85199 Z" fill="#E5ECE1" transform="matrix(0.8935909867286682, 0, 0, 0.8935909867286682, -280.9349888671162, -193.48889036827202)"/>
<path d="M 444.372986 311.35199 H 454.705986 V 314.35199 H 444.372986 V 311.35199 Z" fill="#E5ECE1" transform="matrix(0.8935909867286682, 0, 0, 0.8935909867286682, -280.9349888671162, -193.48889036827202)"/>
<path d="M 362.967987 272.696014 H 365.968987 V 283.029015 H 362.967987 V 272.696014 Z" transform="matrix(0.6319475769996644, -0.631768822669983, 0.631768822669983, 0.6319475769996644, -361.12193955070995, 109.4830563480366)" fill="#E5ECE1"/>
<path d="M 433.796997 342.817993 H 436.796997 V 353.150993 H 433.796997 V 342.817993 Z" transform="matrix(0.6316795349121092, -0.6320368051528931, 0.6320368051528931, 0.6316795349121092, -386.87264145500683, 172.75053529090775)" fill="#E5ECE1"/>
<path d="M 363.218994 343.421997 H 366.218994 V 353.754997 H 363.218994 V 343.421997 Z" transform="matrix(-0.6318582892417908, -0.6318582892417908, 0.6318582892417908, -0.6318582892417908, 55.16631041877247, 568.7205517703999)" fill="#E5ECE1"/>
<path d="M 433.339996 272.593994 H 436.340996 V 282.926994 H 433.339996 V 272.593994 Z" transform="matrix(-0.6319475769996644, -0.631768822669983, 0.631768822669983, -0.6319475769996644, 206.93940078132135, 504.97100953407175)" fill="#E5ECE1"/>
</svg>
